<?xml version="1.0" encoding="UTF-8"?>
<svg id="Camada_2" data-name="Camada 2" xmlns="http://www.w3.org/2000/svg" viewBox="0 0 296.1 72.26">
  <defs>
    <style>
      .cls-1 {
        fill: #1d1d1b;
      }

      .cls-2 {
        fill: #010101;
        fill-rule: evenodd;
      }
    </style>
  </defs>
  <g id="Camada_1-2" data-name="Camada 1">
    <g>
      <path class="cls-1" d="M18.5,72.26H0V16.59C0,11.53,1.25,7.49,3.75,4.5,6.25,1.5,10.33,0,16,0h34v18.2h-31.5v54.06ZM47.7,50.42H14.5l-2.5-18.2h35.7v18.2Z"/>
      <path class="cls-1" d="M57.5,20.61h18.5v51.65h-18.5V20.61Z"/>
      <path class="cls-1" d="M104.63,72.26c-5.58-.07-11.15-.14-16.73-.21V11.77c0-2.46.53-4.57,1.58-6.35,1.05-1.77,2.42-3.12,4.11-4.04,1.69-.92,3.46-1.38,5.31-1.38,2.23,0,4.29.43,6.17,1.28,1.88.85,3.39,2.27,4.54,4.25l27.82,47.18c-.57-.75-1.08-1.26-1.53-1.54-.45-.27-.92-.41-1.43-.41-.57,0-1.07.27-1.48.82-.42.55-.62,1.33-.62,2.35V0h16.73v60.59c0,2.46-.53,4.55-1.58,6.29s-2.41,3.07-4.06,3.99c-1.66.92-3.44,1.38-5.35,1.38-2.17,0-4.21-.44-6.12-1.33-1.91-.89-3.44-2.29-4.59-4.2l-27.44-46.57c.44.61.88,1.04,1.29,1.28.41.24.88.36,1.39.36.64,0,1.13-.27,1.48-.82.35-.55.53-1.36.53-2.46v53.74Z"/>
      <path class="cls-1" d="M191.4,72.26c-4.36,0-7.86-1.2-10.5-3.6-2.64-2.4-4.64-6-6.01-10.8L158.28.13h18.46l14.36,51.98c.06.14.13.24.2.31.06.07.13.1.2.1.13,0,.21-.03.24-.1.03-.07.08-.17.15-.31L206.05.13h18.46l-16.61,57.72c-1.37,4.8-3.36,8.4-5.96,10.8-2.61,2.4-6.12,3.6-10.55,3.6Z"/>
      <path class="cls-1" d="M276.2.13l-12.9,35.04L250.2.13h-19.9l16.4,41.03c1.73,4.13,4.1,7.27,7.1,9.4.1.07.2.13.3.2v21.49h18.5v-21.63s.07-.04.1-.07c3-2.14,5.33-5.27,7-9.4L296.1.13h-19.9Z"/>
      <g>
        <path class="cls-2" d="M74.84,13.95c0,.64-.54.96-1.16,1.16-.6.1-1.27.27-1.98.54-2.18.84-3.6,2.23-4.38,3.16V2.38l6.36-1.73c.64,0,1.16.52,1.16,1.16v12.14Z"/>
        <path class="cls-2" d="M58.66,13.95c0,.64.54.96,1.16,1.16.6.1,1.27.27,1.98.54,2.18.84,3.6,2.23,4.38,3.16V2.38l-6.36-1.73c-.64,0-1.16.52-1.16,1.16v12.14Z"/>
      </g>
    </g>
  </g>
</svg>